PathFileType	4	(X/Y/Z)	RBDS013static.trc
DataRate	CameraRate	NumFrames	NumMarkers	Units	OrigDataRate	OrigDataStartFrame	OrigNumFrames
150.000000	150.000000	4	48	mm	150.000000	18	150
Frame#	Time	L.Ankle			L.Ankle.Medial			L.ASIS			L.GTR			L.Heel.Bottom			L.Heel.Lateral			L.Heel.Top			L.HF			L.Iliac.Crest			L.Knee			L.Knee.Medial			L.MT1			L.MT2			L.MT5			L.PSIS			L.Shank.Bottom.Lateral			L.Shank.Bottom.Medial			L.Shank.Top.Lateral			L.Shank.Top.Medial			L.Thigh.Bottom.Lateral			L.Thigh.Bottom.Medial			L.Thigh.Top.Lateral			L.Thigh.Top.Medial			L.TT			R.Ankle			R.Ankle.Medial			R.ASIS			R.GTR			R.Heel.Bottom			R.Heel.Lateral			R.Heel.Top			R.HF			R.Iliac.Crest			R.Knee			R.Knee.Medial			R.MT1			R.MT2			R.MT5			R.PSIS			R.Shank.Bottom.Lateral			R.Shank.Bottom.Medial			R.Shank.Top.Lateral			R.Shank.Top.Medial			R.Thigh.Bottom.Lateral			R.Thigh.Bottom.Medial			R.Thigh.Top.Lateral			R.Thigh.Top.Medial			R.TT			
		X1	Y1	Z1	X2	Y2	Z2	X3	Y3	Z3	X4	Y4	Z4	X5	Y5	Z5	X6	Y6	Z6	X7	Y7	Z7	X8	Y8	Z8	X9	Y9	Z9	X10	Y10	Z10	X11	Y11	Z11	X12	Y12	Z12	X13	Y13	Z13	X14	Y14	Z14	X15	Y15	Z15	X16	Y16	Z16	X17	Y17	Z17	X18	Y18	Z18	X19	Y19	Z19	X20	Y20	Z20	X21	Y21	Z21	X22	Y22	Z22	X23	Y23	Z23	X24	Y24	Z24	X25	Y25	Z25	X26	Y26	Z26	X27	Y27	Z27	X28	Y28	Z28	X29	Y29	Z29	X30	Y30	Z30	X31	Y31	Z31	X32	Y32	Z32	X33	Y33	Z33	X34	Y34	Z34	X35	Y35	Z35	X36	Y36	Z36	X37	Y37	Z37	X38	Y38	Z38	X39	Y39	Z39	X40	Y40	Z40	X41	Y41	Z41	X42	Y42	Z42	X43	Y43	Z43	X44	Y44	Z44	X45	Y45	Z45	X46	Y46	Z46	X47	Y47	Z47	X48	Y48	Z48	

19	0.12	705.7860107421875	102.7484893798828	1048.600463867188	723.5821533203125	115.4859161376953	1129.8916015625	814.2609252929688	938.4700317382813	1112.4140625	735.6947021484375	849.6778564453125	1065.200073242188	632.9424438476563	40.17623138427734	1092.481811523438	656.4259643554688	64.27180480957031	1051.232055664063	641.6843872070313	87.40904998779297	1092	742.8309936523438	437.4806518554688	1058.2685546875	756.9984741210938	1002.139038085938	1082.338134765625	745.8138427734375	493.7586669921875	1062.265625	737.0248413085938	479.544677734375	1183.495727539063	842.2872924804688	60.04794311523438	1128.58154296875	853.9086303710938	71.78499603271484	1086.089111328125	814.5645141601563	44.33266448974609	1020.4560546875	653.2296142578125	973.6876831054688	1185.246215820313	702.0620727539063	176.7998504638672	1044.720581054688	661.130859375	176.6564788818359	1081.955688476563	694.8480834960938	257.137451171875	1038.833984375	656.2161865234375	257.5712890625	1076.269287109375	764.46435546875	592.8475341796875	1045.513305664063	698.680908203125	590.0380859375	1077.664306640625	753.3330078125	702.4973754882813	1039.972412109375	692.0985717773438	700.2855834960938	1071.265380859375	785.1928100585938	414.8518371582031	1099.921630859375	712.1213989257813	102.001953125	1413.519653320313	732.6529541015625	115.1082000732422	1333.225341796875	823.3121948242188	940.94091796875	1348.697998046875	755.5750732421875	851.5035400390625	1401.74267578125	638.3584594726563	40.59113311767578	1370.623901367188	662.5431518554688	61.20758819580078	1410.388793945313	646.9854125976563	91.57203674316406	1369.854614257813	747.393310546875	436.7353820800781	1406.780395507813	772.8179321289063	1003.821350097656	1380.249877929688	743.396240234375	501.3789367675781	1401.576538085938	743.15771484375	479.6038208007813	1281.733032226563	845.322509765625	58.97246932983398	1331.327758789063	852.369140625	77.69579315185547	1365.1533203125	819.1105346679688	52.14725494384766	1441.63916015625	654.4888305664063	974.695556640625	1285.85205078125	700.4949340820313	172.8408966064453	1416.9296875	664.7683715820313	174.7144775390625	1380.096069335938	696.4757080078125	257.4542236328125	1423.276123046875	658.9945678710938	255.247314453125	1384.65673828125	749.4113159179688	628.6301879882813	1418.934814453125	692.2005004882813	621.1102294921875	1372.879638671875	734.34033203125	737.2465209960938	1415.091918945313	681.0511474609375	731.0161743164063	1370.782348632813	788.0454711914063	413.1019287109375	1367.43896484375	
20	0.1266666666666667	705.7808227539063	102.7326202392578	1048.604248046875	723.5841674804688	115.4889526367188	1129.89111328125	814.261474609375	938.4656982421875	1112.398803710938	735.6881103515625	849.67236328125	1065.179931640625	632.9501953125	40.17195510864258	1092.485961914063	656.4337768554688	64.27256011962891	1051.234130859375	641.6908569335938	87.40592193603516	1091.9990234375	742.8303833007813	437.4708557128906	1058.2412109375	756.9915771484375	1002.141052246094	1082.328857421875	745.8129272460938	493.7482299804688	1062.267333984375	737.0119018554688	479.5505065917969	1183.497192382813	842.2764892578125	60.05566787719727	1128.596923828125	853.9047241210938	71.77762603759766	1086.105712890625	814.5641479492188	44.32080078125	1020.454956054688	653.2261962890625	973.6854858398438	1185.23095703125	702.0646362304688	176.7969360351563	1044.723388671875	661.1268310546875	176.6583251953125	1081.966552734375	694.8519897460938	257.1318359375	1038.833984375	656.2465209960938	257.5001525878906	1076.24169921875	764.4701538085938	592.84814453125	1045.506958007813	698.6865234375	590.0310668945313	1077.65625	753.3374633789063	702.4880981445313	1039.96533203125	692.104248046875	700.2848510742188	1071.2470703125	785.19140625	414.8533630371094	1099.911987304688	712.1258544921875	102.0084991455078	1413.522094726563	732.6509399414063	115.1143569946289	1333.223022460938	823.3045043945313	940.9266357421875	1348.6748046875	755.5692138671875	851.4950561523438	1401.718872070313	638.3546142578125	40.59015274047852	1370.623413085938	662.5462036132813	61.20320129394531	1410.38671875	646.98876953125	91.57206726074219	1369.849487304688	747.3802490234375	436.7269287109375	1406.76220703125	772.80322265625	1003.820007324219	1380.225341796875	743.3900756835938	501.3825073242188	1401.5673828125	743.1664428710938	479.5984802246094	1281.724853515625	845.3289794921875	58.96475982666016	1331.329833984375	852.375244140625	77.69779205322266	1365.158813476563	819.1094360351563	52.15337753295898	1441.636840820313	654.4795532226563	974.6806640625	1285.833618164063	700.4886474609375	172.8370971679688	1416.933837890625	664.7620849609375	174.7212219238281	1380.091918945313	696.4691162109375	257.4491577148438	1423.275634765625	658.9884643554688	255.2453460693359	1384.661376953125	749.4039916992188	628.6288452148438	1418.916748046875	692.1804809570313	621.1099853515625	1372.866088867188	734.3297119140625	737.2399291992188	1415.078125	681.0404663085938	731.0103759765625	1370.75634765625	788.0458984375	413.1022033691406	1367.425415039063	
21	0.1333333333333333	705.7842407226563	102.7316207885742	1048.601928710938	723.5718383789063	115.4945755004883	1129.896728515625	814.2637329101563	938.4593505859375	1112.394897460938	735.6996459960938	849.67236328125	1065.161254882813	632.946044921875	40.16579437255859	1092.492919921875	656.4286499023438	64.2728271484375	1051.2314453125	641.6878051757813	87.40608215332031	1091.983276367188	742.8235473632813	437.464111328125	1058.23974609375	756.9992065429688	1002.132385253906	1082.324584960938	745.8218383789063	493.7586669921875	1062.25830078125	737.0077514648438	479.5396423339844	1183.481811523438	842.27001953125	60.05691909790039	1128.599243164063	853.9176025390625	71.78413391113281	1086.105346679688	814.5609130859375	44.32975387573242	1020.455200195313	653.2208862304688	973.6826782226563	1185.207275390625	702.0593872070313	176.7955169677734	1044.722534179688	661.1239013671875	176.6576538085938	1081.959716796875	694.8535766601563	257.1329040527344	1038.829833984375	656.2498168945313	257.4987182617188	1076.242065429688	764.4735717773438	592.8478393554688	1045.491455078125	698.6846923828125	590.025634765625	1077.647094726563	753.3427124023438	702.48779296875	1039.95068359375	692.0990600585938	700.2815551757813	1071.232055664063	785.1826782226563	414.8421325683594	1099.911499023438	712.1163940429688	102.004638671875	1413.515014648438	732.6514282226563	115.1166610717773	1333.228759765625	823.2933959960938	940.9332885742188	1348.666137695313	755.5547485351563	851.4932250976563	1401.69970703125	638.3435668945313	40.59305572509766	1370.6201171875	662.544921875	61.20155334472656	1410.389404296875	646.9891357421875	91.56786346435547	1369.84423828125	747.3818969726563	436.7342224121094	1406.752685546875	772.7811889648438	1003.807250976563	1380.213134765625	743.3901977539063	501.3807067871094	1401.550659179688	743.161865234375	479.5938720703125	1281.713989257813	845.3152465820313	58.97572326660156	1331.340454101563	852.3636474609375	77.69188690185547	1365.148315429688	819.1094970703125	52.15597152709961	1441.636962890625	654.4735107421875	974.6808471679688	1285.808471679688	700.48828125	172.8450622558594	1416.928466796875	664.7581787109375	174.7205352783203	1380.09423828125	696.4660034179688	257.4494934082031	1423.273193359375	658.9815673828125	255.2515716552734	1384.652465820313	749.3827514648438	628.63037109375	1418.901733398438	692.1815185546875	621.111328125	1372.859130859375	734.3150634765625	737.238525390625	1415.061767578125	681.0369262695313	731.01513671875	1370.740600585938	788.0223999023438	413.1004333496094	1367.441040039063	
22	0.14	705.7783813476563	102.7449645996094	1048.596069335938	723.5723876953125	115.4891510009766	1129.891357421875	814.2623901367188	938.461181640625	1112.380737304688	735.693115234375	849.675048828125	1065.157348632813	632.9481201171875	40.16931533813477	1092.486450195313	656.4271240234375	64.27670288085938	1051.222534179688	641.6873168945313	87.41094207763672	1091.9873046875	742.7901000976563	437.4823608398438	1058.247192382813	756.98974609375	1002.130126953125	1082.304565429688	745.8058471679688	493.77099609375	1062.258911132813	737.0185546875	479.5428161621094	1183.477294921875	842.26416015625	60.04788208007813	1128.607299804688	853.9098510742188	71.78814697265625	1086.11865234375	814.5578002929688	44.32803344726563	1020.454833984375	653.2097778320313	973.6749267578125	1185.186401367188	702.0604858398438	176.7894134521484	1044.713989257813	661.1296997070313	176.6527099609375	1081.948364257813	694.8502197265625	257.1258239746094	1038.82666015625	656.2427368164063	257.498046875	1076.229614257813	764.4671020507813	592.845947265625	1045.487426757813	698.6829223632813	590.0256958007813	1077.63916015625	753.3414306640625	702.481201171875	1039.941528320313	692.0960693359375	700.2830200195313	1071.21240234375	785.1791381835938	414.8449401855469	1099.905151367188	712.1124267578125	102.0090866088867	1413.52392578125	732.6528930664063	115.1056137084961	1333.231201171875	823.2723388671875	940.9293823242188	1348.662109375	755.541748046875	851.4968872070313	1401.691528320313	638.349609375	40.59604644775391	1370.632202148438	662.5442504882813	61.20465469360352	1410.386352539063	646.991455078125	91.57318878173828	1369.85009765625	747.3843994140625	436.7277221679688	1406.755615234375	772.7680053710938	1003.820739746094	1380.191040039063	743.385498046875	501.3800659179688	1401.543334960938	743.1531982421875	479.5930786132813	1281.71337890625	845.3197631835938	58.97516250610352	1331.324096679688	852.3702392578125	77.69762420654297	1365.160034179688	819.1051635742188	52.15574264526367	1441.646240234375	654.4609375	974.6729125976563	1285.79052734375	700.486572265625	172.8526306152344	1416.927978515625	664.7556762695313	174.7122039794922	1380.087158203125	696.4662475585938	257.4546813964844	1423.272827148438	658.9766235351563	255.2497863769531	1384.649169921875	749.3788452148438	628.624755859375	1418.889526367188	692.1668701171875	621.115478515625	1372.839477539063	734.3014526367188	737.2413330078125	1415.053344726563	681.0269775390625	731.0115966796875	1370.720581054688	788.030517578125	413.1041259765625	1367.421508789063	
